<svg width="80" height="60" viewBox="0 0 80 60" fill="none" xmlns="http://www.w3.org/2000/svg">
<g clip-path="url(#clip0_177_1768)">
<path fill-rule="evenodd" clip-rule="evenodd" d="M0 0H80V60H0V0Z" fill="#229E45"/>
<path fill-rule="evenodd" clip-rule="evenodd" d="M40.175 54.5L77.8625 30.0375L39.95 5.5L2.1375 30.0875L40.175 54.5Z" fill="#F8E509"/>
<path fill-rule="evenodd" clip-rule="evenodd" d="M56.6 30C56.6 38.7875 49.4625 45.9125 40.65 45.9125C37.5009 45.9075 34.4239 44.969 31.8081 43.2156C29.1922 41.4622 27.155 38.9726 25.9539 36.0615C24.7527 33.1505 24.4417 29.9486 25.06 26.8608C25.6783 23.7729 27.1982 20.9377 29.4276 18.7136C31.657 16.4894 34.4958 14.9762 37.585 14.3652C40.6743 13.7541 43.8754 14.0727 46.7837 15.2807C49.6919 16.4887 52.1767 18.5318 53.924 21.1517C55.6712 23.7717 56.6025 26.8509 56.6 30Z" fill="#2B49A3"/>
<path fill-rule="evenodd" clip-rule="evenodd" d="M35.4125 39.5375L34.9125 39.25L34.4125 39.5L34.525 38.9375L34.125 38.5126L34.6875 38.4501L34.9625 37.9501L35.2 38.475L35.75 38.5751L35.3375 38.9501M46.0875 42.2375L45.6 41.9501L45.1 42.2001L45.2 41.6376L44.8125 41.225L45.375 41.1625L45.6375 40.6501L45.8875 41.175L46.4375 41.2751L46.0125 41.6625M41.4875 37.9125L41.0625 37.6625L40.625 37.8876L40.725 37.4001L40.375 37.0375L40.875 36.9875L41.1 36.5375L41.3 37L41.7875 37.0876L41.4125 37.425M52.2875 36.3625L51.8625 36.1125L51.425 36.3376L51.525 35.85L51.1875 35.5L51.675 35.4501L51.9 35.0126L52.1 35.4626L52.575 35.55L52.2125 35.875M41.3 33.125L40.8 32.85L40.3 33.1L40.4 32.5251L40.0125 32.1125L40.575 32.05L40.8375 31.5375L41.0875 32.0625L41.6375 32.1625L41.2125 32.5625M28.1375 28.1875L27.6375 27.9125L27.1375 28.1625L27.2625 27.5875L26.85 27.175L27.425 27.1125L27.675 26.6L27.925 27.125L28.475 27.225L28.0625 27.6125M29.725 34.7626L29.225 34.475L28.725 34.725L28.8375 34.1625L28.4375 33.75L29 33.675L29.2625 33.175L29.5125 33.7001L30.0625 33.8L29.65 34.1875M46.15 25.775L45.7 25.525L45.25 25.75L45.35 25.25L45 24.875L45.5 24.8125L45.7375 24.3625L45.95 24.8375L46.45 24.925L46.075 25.2626M45.2375 30.05L44.9 29.85L44.5375 30.025L44.6125 29.625L44.3375 29.3375L44.7375 29.2875L44.925 28.9375L45.0875 29.3125L45.4625 29.375L45.1875 29.65M27.4125 35.9501L27.075 35.7626L26.7375 35.925L26.8125 35.55L26.55 35.2751L26.925 35.225L27.1 34.8876L27.2625 35.2375L27.6375 35.3125L27.35 35.5625M52.375 37.475L52.1 37.3376L51.825 37.4626L51.8875 37.175L51.675 36.975L51.975 36.9375L52.125 36.6875L52.25 36.9375L52.5625 37L52.325 37.1875" fill="#FFFFEF"/>
<path fill-rule="evenodd" clip-rule="evenodd" d="M27.4125 35.95L27.075 35.7625L26.7375 35.9249L26.8125 35.5499L26.55 35.275L26.925 35.2249L27.1 34.8875L27.2625 35.2374L27.6375 35.3125L27.35 35.5625" fill="#FFFFEF"/>
<path fill-rule="evenodd" clip-rule="evenodd" d="M27.4125 35.9501L27.075 35.7626L26.7375 35.925L26.8125 35.55L26.55 35.2751L26.925 35.225L27.1 34.8876L27.2625 35.2375L27.6375 35.3125L27.35 35.5625M32.6375 35.9375L32.3125 35.7626L31.975 35.925L32.05 35.55L31.7875 35.2751L32.1625 35.225L32.3375 34.8876L32.5 35.2375L32.875 35.3L32.5875 35.5625M31.9875 37.6875L31.6625 37.5L31.325 37.675L31.4 37.3L31.1375 37.0126L31.5125 36.9626L31.6875 36.625L31.85 36.975L32.225 37.05L31.9375 37.3M42.8625 34.5251L42.5375 34.3251L42.1875 34.5L42.2625 34.125L42.0125 33.8376L42.3875 33.8L42.5625 33.4626L42.7125 33.8125L43.0875 33.875L42.8125 34.1376M39.675 34.5126L39.3375 34.3251L39 34.5L39.075 34.125L38.825 33.8376L39.2 33.8L39.375 33.4501L39.525 33.8125L39.9 33.875L39.625 34.1376M31.025 33.4125L30.8125 33.2875L30.6 33.3876L30.65 33.1501L30.4875 32.975L30.725 32.9501L30.825 32.7375L30.925 32.9626L31.1625 33L30.9875 33.1625M51.9625 38.8376L51.6375 38.6501L51.3 38.8251L51.375 38.4501L51.1125 38.1625L51.4875 38.1125L51.6625 37.7751L51.825 38.125L52.2 38.2001L51.9125 38.4501M49.3125 39.2001L49.0375 39.0251L48.75 39.175L48.8125 38.85L48.6 38.625L48.9125 38.5876L49.0625 38.3L49.1875 38.6L49.5 38.6501L49.2625 38.875M50.5625 39.1625L50.3125 39.0126L50.05 39.1376L50.1 38.85L49.9 38.6376L50.1875 38.6L50.325 38.35L50.45 38.6L50.7375 38.6625L50.525 38.8625M54.1625 36.0126L53.9125 35.8876L53.6625 36.0126L53.725 35.725L53.525 35.5126L53.8125 35.475L53.9375 35.225L54.0625 35.4875L54.325 35.5375L54.125 35.7375M49.275 40.9626L48.9625 40.7875L48.625 40.9375L48.7 40.5876L48.45 40.3376L48.825 40.3L48.9875 39.9875L49.1375 40.3125L49.5125 40.375L49.225 40.6125M49.3 42.3876L49 42.2126L48.7 42.375L48.775 42.0251L48.5375 41.7751L48.875 41.725L49.025 41.4125L49.1625 41.7375L49.5 41.8L49.25 42.05M46.875 39.1625L46.6375 39.0126L46.3875 39.1376L46.4375 38.8625L46.25 38.6501L46.525 38.625L46.65 38.375L46.775 38.625L47.05 38.675L46.85 38.875M44.625 39.1625L44.375 39.0126L44.125 39.1376L44.1875 38.8625L43.9875 38.6501L44.275 38.625L44.4 38.375L44.525 38.625L44.7875 38.675L44.5875 38.875M40.7875 35.8L40.5375 35.6625L40.2875 35.7875L40.35 35.5L40.15 35.3L40.425 35.2626L40.55 35.0126L40.675 35.2626L40.95 35.3251L40.75 35.5126M41.2125 42.6376L41.0125 42.5251L40.7875 42.6376L40.8375 42.3876L40.675 42.2126L40.9125 42.1875L41.025 41.975L41.125 42.2001L41.3625 42.2375L41.1875 42.4001M35.4125 31.5751L34.9125 31.2875L34.4125 31.5375L34.525 30.975L34.125 30.5625L34.6875 30.4875L34.9625 29.9875L35.2 30.5126L35.75 30.6125L35.3375 31" fill="#FFFFEF"/>
<path fill-rule="evenodd" clip-rule="evenodd" d="M55.55 35.725C55.8597 34.9215 56.1022 34.0936 56.275 33.25C47.8 25.8125 38.3625 22 26.4375 22.7875C26.005 23.6244 25.6494 24.4988 25.375 25.4C39.5 24.05 49.875 30.3 55.55 35.725Z" fill="white"/>
<path d="M51.75 31.55L52.0375 31.7125C51.9946 31.7974 51.9814 31.8942 52 31.9875C52.0293 32.078 52.0918 32.1539 52.175 32.2C52.2625 32.2625 52.35 32.3 52.425 32.2875C52.5 32.2875 52.55 32.25 52.5875 32.2C52.6093 32.1668 52.6182 32.1268 52.6125 32.0875C52.6023 32.0413 52.5808 31.9984 52.55 31.9625C52.525 31.925 52.4625 31.8375 52.3625 31.7375C52.2597 31.6314 52.1827 31.5031 52.1375 31.3625C52.1063 31.2561 52.1144 31.142 52.1603 31.041C52.2062 30.9401 52.2868 30.859 52.3875 30.8125C52.4784 30.7746 52.5789 30.7658 52.675 30.7875C52.7925 30.8146 52.9032 30.8656 53 30.9375C53.175 31.0625 53.2875 31.1875 53.325 31.3375C53.3423 31.4077 53.3445 31.4807 53.3316 31.5518C53.3187 31.6229 53.2909 31.6904 53.25 31.75L52.95 31.5625C52.9875 31.4875 53 31.4125 52.975 31.35C52.9625 31.2875 52.9125 31.225 52.825 31.175C52.7608 31.1234 52.6822 31.0928 52.6 31.0875C52.5773 31.0867 52.5549 31.0921 52.5351 31.1032C52.5153 31.1142 52.4988 31.1304 52.4875 31.15C52.4625 31.1875 52.4625 31.225 52.475 31.275C52.4875 31.325 52.55 31.425 52.675 31.55C52.8 31.675 52.875 31.7875 52.925 31.8625C52.9696 31.9444 52.9898 32.0374 52.9832 32.1305C52.9765 32.2236 52.9433 32.3128 52.8875 32.3875C52.829 32.4725 52.7462 32.5378 52.65 32.575C52.5563 32.6182 52.4515 32.6313 52.35 32.6125C52.2375 32.5875 52.125 32.5375 52 32.45C51.8125 32.325 51.7 32.1875 51.6625 32.0375C51.6218 31.8674 51.6487 31.6882 51.7375 31.5375L51.75 31.55ZM50.3 30.6L50.6125 30.7625C50.5738 30.8488 50.565 30.9456 50.5875 31.0375C50.6195 31.1233 50.6817 31.1944 50.7625 31.2375C50.8625 31.3 50.9375 31.325 51.0125 31.3125C51.0875 31.3125 51.1375 31.275 51.175 31.2125C51.194 31.1828 51.2027 31.1477 51.2 31.1125C51.2 31.075 51.175 31.025 51.1375 30.9875C51.0735 30.9102 51.0068 30.8352 50.9375 30.7625C50.8 30.625 50.7125 30.5125 50.6875 30.4125C50.6671 30.3482 50.6609 30.2802 50.6696 30.2132C50.6782 30.1463 50.7014 30.082 50.7375 30.025C50.785 29.9479 50.8547 29.8869 50.9375 29.85C51.0234 29.8104 51.1191 29.7973 51.2125 29.8125C51.3281 29.832 51.4386 29.8745 51.5375 29.9375C51.725 30.0625 51.8375 30.1875 51.875 30.325C51.8978 30.3953 51.9051 30.4696 51.8965 30.543C51.8878 30.6163 51.8635 30.6869 51.825 30.75L51.5125 30.575C51.55 30.4875 51.5625 30.425 51.5375 30.3625C51.5125 30.3 51.4625 30.2375 51.375 30.1875C51.3058 30.1379 51.2226 30.1116 51.1375 30.1125C51.117 30.1139 51.0971 30.1203 51.0797 30.1312C51.0622 30.1421 51.0477 30.1572 51.0375 30.175C51.0125 30.2125 51.0125 30.25 51.025 30.3C51.0375 30.35 51.1125 30.45 51.2375 30.575C51.3625 30.7 51.45 30.8 51.4875 30.875C51.5376 30.9534 51.5642 31.0445 51.5642 31.1375C51.5642 31.2305 51.5376 31.3216 51.4875 31.4C51.4336 31.4872 51.3554 31.5567 51.2625 31.6C51.1688 31.6432 51.064 31.6563 50.9625 31.6375C50.8339 31.6158 50.7107 31.569 50.6 31.5C50.4384 31.4139 50.3139 31.2716 50.25 31.1C50.2017 30.9331 50.2196 30.754 50.3 30.6ZM48.525 30.125L49.4375 28.625L50.5375 29.3125L50.3875 29.5625L49.5875 29.0625L49.3875 29.4L50.1375 29.8625L49.975 30.1125L49.225 29.65L48.975 30.0625L49.8125 30.5625L49.6625 30.8125L48.5375 30.125H48.525ZM45.9375 28L46.075 27.75L46.75 28.0875L46.4375 28.7125C46.3375 28.7375 46.2125 28.75 46.0625 28.7375C45.9185 28.7216 45.7786 28.6792 45.65 28.6125C45.4987 28.5388 45.3694 28.4267 45.275 28.2875C45.189 28.1581 45.1454 28.0053 45.15 27.85C45.1563 27.6884 45.1991 27.5303 45.275 27.3875C45.3501 27.2372 45.4619 27.1082 45.6 27.0125C45.7321 26.9211 45.8894 26.8731 46.05 26.875C46.175 26.875 46.3 26.9125 46.45 27C46.65 27.0875 46.775 27.2125 46.8375 27.35C46.9025 27.4865 46.9158 27.6419 46.875 27.7875L46.5375 27.6875C46.5582 27.6038 46.5493 27.5155 46.5125 27.4375C46.475 27.3625 46.4125 27.3125 46.3125 27.2625C46.2542 27.2292 46.1896 27.2087 46.1228 27.2022C46.056 27.1958 45.9886 27.2035 45.925 27.225C45.8 27.2625 45.6875 27.375 45.6 27.55C45.5125 27.725 45.475 27.8875 45.5125 28.025C45.5298 28.0902 45.5611 28.1509 45.6043 28.2027C45.6475 28.2545 45.7015 28.2963 45.7625 28.325C45.825 28.3625 45.9 28.3875 45.975 28.3875C46.0496 28.3988 46.1254 28.3988 46.2 28.3875L46.3 28.1875L45.9375 28ZM34.6625 25.2125L34.9125 23.4625L35.4375 23.55L35.575 24.775L36.0625 23.65L36.5875 23.725L36.3375 25.45L36 25.4L36.2125 24.0375L35.6625 25.35L35.325 25.3L35.1875 23.8875L34.9875 25.2625L34.6625 25.2125ZM32.9 25L33.0625 23.25L34.35 23.375L34.325 23.675L33.3875 23.5875L33.35 23.9625L34.225 24.05L34.1875 24.35L33.3125 24.2625L33.275 24.7375L34.25 24.825L34.225 25.125L32.9 25Z" fill="#309E3A"/>
<path d="M27.0625 23.9125C27.0625 23.725 27.1 23.5875 27.15 23.4625C27.1938 23.3736 27.2531 23.2931 27.325 23.225C27.3891 23.1603 27.4656 23.1093 27.55 23.075C27.675 23.0375 27.8 23.0125 27.925 23.0125C28.1875 23.0125 28.3875 23.1125 28.55 23.2625C28.6273 23.358 28.6849 23.468 28.7192 23.5861C28.7536 23.7041 28.764 23.8278 28.75 23.95C28.75 24.225 28.6625 24.4499 28.5 24.6124C28.4165 24.6896 28.3177 24.7484 28.2101 24.785C28.1024 24.8216 27.9882 24.8352 27.875 24.825C27.7633 24.8261 27.6525 24.8045 27.5493 24.7615C27.4462 24.7186 27.3529 24.6551 27.275 24.575C27.1195 24.3908 27.0431 24.1527 27.0625 23.9125Z" fill="#309E3A"/>
<path d="M27.425 23.9125C27.425 24.1 27.4625 24.25 27.55 24.3625C27.6375 24.4625 27.75 24.525 27.9 24.525C27.9649 24.5295 28.03 24.5195 28.0905 24.4958C28.1511 24.472 28.2056 24.435 28.25 24.3875C28.3375 24.2875 28.375 24.1375 28.3875 23.925C28.3875 23.725 28.3625 23.575 28.2625 23.475C28.2218 23.4246 28.1704 23.3839 28.112 23.3558C28.0537 23.3277 27.9898 23.3129 27.925 23.3125C27.8592 23.3104 27.7938 23.3227 27.7334 23.3486C27.6729 23.3746 27.6188 23.4134 27.575 23.4625C27.475 23.5625 27.4375 23.7125 27.425 23.9125Z" fill="#F7FFFF"/>
<path d="M29.125 24.8125L29.15 23.0625H29.9C30.0875 23.0625 30.2125 23.0875 30.3 23.125C30.3875 23.15 30.45 23.2125 30.5 23.2875C30.55 23.3625 30.575 23.4625 30.575 23.575C30.576 23.6953 30.5313 23.8114 30.45 23.9C30.3576 23.9866 30.2387 24.0394 30.1125 24.05L30.3 24.2C30.35 24.25 30.4125 24.35 30.4875 24.4875L30.7 24.8375H30.275L30.025 24.4375L29.85 24.1875C29.8197 24.1531 29.7809 24.1272 29.7375 24.1125C29.6806 24.0959 29.6217 24.0875 29.5625 24.0875H29.4875V24.8125H29.125Z" fill="#309E3A"/>
<path d="M29.5 23.8125H29.75C29.925 23.8125 30.0375 23.8125 30.075 23.7875C30.1125 23.7875 30.15 23.75 30.175 23.725C30.2 23.7 30.2125 23.6375 30.2125 23.6C30.2125 23.525 30.2 23.4751 30.1625 23.4501C30.1375 23.4126 30.0875 23.3875 30.0375 23.375H29.7875L29.5 23.3625V23.8V23.8125Z" fill="white"/>
<path d="M31.125 23.1499L31.775 23.1874C31.9125 23.1874 32.025 23.1999 32.1 23.2249C32.1973 23.2602 32.2835 23.3206 32.35 23.3999C32.422 23.4873 32.4733 23.5899 32.5 23.6999C32.5375 23.8124 32.55 23.9499 32.5375 24.1124C32.5374 24.24 32.5163 24.3667 32.475 24.4874C32.425 24.6124 32.35 24.7124 32.2625 24.7874C32.1897 24.8474 32.1042 24.8901 32.0125 24.9124C31.9375 24.9374 31.825 24.9374 31.7 24.9374L31.0375 24.8999L31.125 23.1499Z" fill="#309E3A"/>
<path d="M31.4625 23.4624L31.4 24.6249H31.875C31.9375 24.6249 31.9875 24.5999 32.025 24.5624C32.0625 24.5249 32.1 24.4749 32.125 24.3999C32.15 24.3249 32.175 24.2124 32.175 24.0749L32.1625 23.7624C32.1446 23.6965 32.1102 23.6362 32.0625 23.5874C32.021 23.5457 31.9693 23.5155 31.9125 23.4999C31.818 23.4789 31.7218 23.4663 31.625 23.4624H31.4625Z" fill="white"/>
<path d="M39.7 26.275L40.1125 24.575L40.6625 24.7L41.0625 24.825C41.15 24.875 41.225 24.95 41.2625 25.0625C41.3125 25.1625 41.3125 25.275 41.2875 25.4125C41.2625 25.5125 41.225 25.6 41.1625 25.6625C41.1167 25.7173 41.0593 25.7615 40.9945 25.7917C40.9297 25.822 40.859 25.8376 40.7875 25.8375C40.7 25.8375 40.575 25.8125 40.4125 25.775L40.2 25.7125L40.05 26.3624L39.7 26.275Z" fill="#309E3A"/>
<path d="M40.375 24.95L40.275 25.4249L40.4625 25.475C40.5875 25.5 40.6875 25.525 40.7375 25.5125C40.7861 25.5057 40.8315 25.484 40.8673 25.4505C40.9031 25.4169 40.9276 25.373 40.9375 25.325C40.9375 25.2625 40.9375 25.2125 40.9125 25.1625C40.8851 25.1116 40.8409 25.0719 40.7875 25.0499L40.55 24.9874L40.3875 24.95H40.375Z" fill="white"/>
<path d="M41.325 26.7626L41.9125 25.1125L42.6 25.3625C42.7875 25.425 42.9 25.4875 42.975 25.5375C43.0375 25.6 43.0875 25.6626 43.1 25.7626C43.1125 25.8626 43.125 25.95 43.1 26.05C43.05 26.175 42.975 26.2626 42.875 26.3251C42.775 26.3751 42.65 26.3875 42.5 26.3625C42.55 26.425 42.6 26.4875 42.625 26.5625L42.725 26.9L42.8 27.2875L42.4125 27.15L42.2875 26.7001C42.2648 26.5983 42.2356 26.4981 42.2 26.4C42.1834 26.3612 42.1577 26.3269 42.125 26.3C42.1 26.2625 42.05 26.2375 41.9625 26.2125L41.9 26.1875L41.65 26.8876L41.325 26.7626Z" fill="#309E3A"/>
<path d="M42 25.9249L42.2375 26.0125C42.4 26.075 42.5 26.1 42.55 26.1C42.5875 26.1 42.625 26.1 42.6625 26.0625C42.7 26.0375 42.725 26 42.7375 25.95C42.7625 25.9 42.7625 25.8499 42.7375 25.7999C42.719 25.7515 42.6834 25.7115 42.6375 25.6875L42.3875 25.6L42.1375 25.5125L41.9875 25.9249H42Z" fill="white"/>
<path d="M43.375 26.6999C43.418 26.5535 43.4903 26.4174 43.5875 26.2999C43.6507 26.2245 43.7269 26.161 43.8125 26.1124C43.89 26.0686 43.9746 26.039 44.0625 26.0249C44.1875 26.0249 44.3125 26.0249 44.45 26.0749C44.5617 26.1025 44.6663 26.1536 44.7568 26.2247C44.8473 26.2958 44.9217 26.3854 44.975 26.4874C45.075 26.6874 45.075 26.9249 45 27.1999C44.9381 27.4362 44.7854 27.6384 44.575 27.7624C44.3875 27.8749 44.1625 27.8874 43.925 27.8124C43.8136 27.784 43.7093 27.7327 43.6189 27.6616C43.5285 27.5906 43.4539 27.5014 43.4 27.3999C43.3499 27.2906 43.322 27.1725 43.3177 27.0524C43.3134 26.9323 43.3329 26.8125 43.375 26.6999Z" fill="#309E3A"/>
<path d="M43.725 26.8C43.675 26.9875 43.6625 27.15 43.725 27.275C43.7875 27.4 43.875 27.475 44.0125 27.525C44.1375 27.5625 44.2625 27.55 44.3875 27.475C44.5125 27.4125 44.5875 27.275 44.65 27.075C44.7125 26.8875 44.7125 26.7375 44.65 26.6125C44.6253 26.5532 44.5879 26.5001 44.5404 26.4569C44.4928 26.4137 44.4364 26.3815 44.375 26.3625C44.3135 26.3413 44.2481 26.3336 44.1834 26.3401C44.1186 26.3466 44.0561 26.367 44 26.4C43.875 26.475 43.7875 26.6 43.725 26.8Z" fill="white"/>
<path d="M46.7875 29.1374L47.5875 27.5874L48.25 27.9249C48.3749 27.9848 48.4889 28.0651 48.5875 28.1624C48.65 28.2249 48.6875 28.2999 48.6875 28.3999C48.6875 28.4999 48.6875 28.5874 48.6375 28.6749C48.5894 28.7873 48.4999 28.8768 48.3875 28.9249C48.2625 28.9499 48.1375 28.9499 48 28.8999C48.05 28.9749 48.075 29.0499 48.1 29.1124C48.125 29.1874 48.1375 29.2999 48.15 29.4624L48.175 29.8624L47.8 29.6749L47.75 29.2124C47.7441 29.1076 47.7316 29.0032 47.7125 28.8999C47.704 28.8531 47.6823 28.8098 47.65 28.7749L47.5 28.6874L47.4375 28.6499L47.1 29.2999L46.7875 29.1374Z" fill="#309E3A"/>
<path d="M47.5625 28.4L47.8 28.525C47.95 28.6 48.05 28.65 48.0875 28.65C48.125 28.65 48.175 28.65 48.2125 28.625C48.25 28.6125 48.275 28.575 48.3 28.525C48.325 28.475 48.3375 28.425 48.325 28.375C48.3096 28.3252 48.279 28.2815 48.2375 28.25C48.1643 28.2051 48.0893 28.1634 48.0125 28.125L47.7625 28L47.5625 28.4Z" fill="white"/>
<path d="M53.2625 32.3376C53.3434 32.2091 53.4497 32.0985 53.575 32.0126C53.6591 31.9588 53.7523 31.9207 53.85 31.9001C53.9407 31.8816 54.0343 31.8816 54.125 31.9001C54.25 31.9251 54.3625 31.9751 54.475 32.0501C54.5723 32.1107 54.6559 32.1909 54.7204 32.2856C54.785 32.3803 54.8291 32.4874 54.85 32.6001C54.8875 32.8126 54.825 33.0501 54.675 33.2876C54.5495 33.4942 54.3472 33.6425 54.1125 33.7001C54.0006 33.7243 53.8848 33.7245 53.7728 33.7008C53.6608 33.6772 53.555 33.63 53.4625 33.5626C53.3652 33.502 53.2816 33.4218 53.2171 33.3271C53.1525 33.2324 53.1084 33.1253 53.0875 33.0126C53.05 32.7876 53.1125 32.5626 53.2625 32.3376Z" fill="#309E3A"/>
<path d="M53.575 32.5377C53.45 32.7002 53.4125 32.8502 53.4375 32.9877C53.4467 33.051 53.4693 33.1116 53.5038 33.1655C53.5383 33.2194 53.5839 33.2653 53.6375 33.3002C53.7625 33.3877 53.8875 33.4127 54.0125 33.3752C54.1375 33.3377 54.2625 33.2502 54.375 33.0752C54.4875 32.9002 54.5375 32.7502 54.5125 32.6252C54.5 32.5002 54.425 32.3877 54.3125 32.3002C54.2 32.2127 54.0625 32.2002 53.9375 32.2377C53.8125 32.2627 53.6875 32.3627 53.5625 32.5377H53.575Z" fill="white"/>
<path d="M37.725 25.5624L38.0125 24.3374L38.9125 24.5499L38.875 24.7499L38.2125 24.5999L38.15 24.8749L38.7625 25.0124L38.7125 25.2249L38.1 25.0749L38.025 25.4124L38.7125 25.5749L38.6625 25.7749L37.725 25.5624Z" fill="#309E3A"/>
</g>
<defs>
<clipPath id="clip0_177_1768">
<rect width="80" height="60" fill="white"/>
</clipPath>
</defs>
</svg>
